<?xml version="1.0" standalone="no"?>
<!DOCTYPE svg PUBLIC "-//W3C//DTD SVG 20010904//EN"
 "http://www.w3.org/TR/2001/REC-SVG-20010904/DTD/svg10.dtd">
<svg version="1.0" xmlns="http://www.w3.org/2000/svg"
 width="201.000000pt" height="203.000000pt" viewBox="0 0 201.000000 203.000000"
 preserveAspectRatio="xMidYMid meet">

<g transform="translate(0.000000,203.000000) scale(0.100000,-0.100000)"
fill="#000000" stroke="none">
<path d="M65 1948 c-3 -7 -4 -429 -3 -938 l3 -925 935 0 935 0 0 935 0 935
-933 3 c-741 2 -934 0 -937 -10z m835 -13 c10 -12 10 -18 0 -30 -27 -32 -71
-8 -56 30 3 8 14 15 24 15 11 0 25 -7 32 -15z m528 -23 c3 -16 -2 -22 -17 -22
-24 0 -33 13 -25 35 9 23 38 14 42 -13z m-758 -4 c24 -26 25 -46 5 -75 -8 -12
-12 -28 -9 -37 3 -8 -2 -29 -12 -45 -17 -29 -26 -33 -79 -35 -11 -1 -30 -7
-42 -14 -42 -24 -113 27 -113 81 0 29 14 62 34 82 15 15 73 35 101 35 13 0 28
7 35 15 18 22 56 18 80 -7z m940 -8 c0 -13 -7 -20 -19 -20 -22 0 -35 15 -26
30 12 19 45 11 45 -10z m-1380 -40 c-11 -20 -30 -28 -30 -12 0 11 22 32 32 32
5 0 4 -9 -2 -20z m1053 -39 c6 -24 0 -31 -25 -31 -11 0 -18 7 -18 18 0 36 34
45 43 13z m-948 -61 c3 -5 1 -10 -4 -10 -6 0 -11 5 -11 10 0 6 2 10 4 10 3 0
8 -4 11 -10z m515 -40 c-20 -13 -43 -13 -35 0 3 6 16 10 28 10 18 0 19 -2 7
-10z m-100 -20 c0 -10 -10 -25 -22 -31 -18 -9 -24 -8 -34 6 -18 25 -6 45 27
45 22 0 29 -5 29 -20z m-378 -35 c-2 -14 -8 -25 -12 -25 -10 0 -8 20 3 38 12
18 15 15 9 -13z m1088 -13 c0 -2 -5 -12 -10 -23 -12 -21 -40 -25 -58 -7 -22
22 -12 33 28 33 22 0 40 -1 40 -3z m-686 -64 c13 -21 -2 -51 -26 -56 -20 -4
-48 24 -48 48 0 32 55 37 74 8z m470 -53 c3 -8 1 -15 -4 -15 -6 0 -10 7 -10
15 0 8 2 15 4 15 2 0 6 -7 10 -15z m416 -30 c7 -9 10 -25 6 -40 -6 -22 -11
-26 -39 -23 -25 2 -33 8 -35 26 -2 13 -1 30 2 38 7 18 50 18 66 -1z m250 -15
c0 -24 -25 -33 -41 -13 -11 13 -10 17 5 29 22 16 36 10 36 -16z m-1326 -16
c18 -17 22 -74 6 -74 -5 0 -10 -8 -11 -17 0 -11 -3 -13 -6 -5 -2 6 -17 12 -32
12 -30 0 -74 27 -66 40 3 5 1 11 -5 15 -18 11 -11 22 23 33 47 15 74 14 91 -4z
m119 -13 c-4 -35 -43 -119 -58 -125 -7 -2 -21 1 -30 8 -16 11 -15 16 9 63 29
58 53 86 70 80 6 -2 10 -14 9 -26z m741 -22 c29 -23 33 -50 11 -73 -8 -8 -15
-19 -15 -25 0 -5 -10 -11 -22 -13 -20 -3 -23 -9 -23 -43 0 -35 -3 -40 -25 -43
-20 -3 -22 -2 -12 11 32 38 -39 93 -86 68 -27 -15 -35 -62 -14 -80 15 -12 14
-12 -8 -6 -14 4 -25 8 -25 9 -1 0 -6 14 -13 29 -18 42 -15 69 13 107 14 19 25
30 25 26 0 -5 6 -4 13 2 6 5 28 13 47 17 19 4 46 13 60 21 34 18 43 17 74 -7z
m-1078 -55 c-3 -8 -10 -12 -16 -9 -7 4 -6 14 2 28 12 24 24 8 14 -19z m195
-77 l-21 -21 0 27 c0 17 5 27 15 27 8 0 16 6 16 13 1 6 3 4 6 -7 3 -11 -4 -27
-16 -39z m-115 -33 c-8 -20 -46 -17 -76 6 -27 20 -26 21 40 38 30 7 35 6 38
-10 2 -11 1 -26 -2 -34z m1456 50 c12 -11 -4 -42 -20 -40 -25 4 -29 46 -4 46
10 0 21 -3 24 -6z m-1758 -17 c11 -8 17 -23 14 -38 -2 -19 -10 -25 -35 -27
-28 -3 -33 1 -39 23 -11 44 24 69 60 42z m66 -91 c0 -8 -4 -17 -9 -21 -12 -7
-24 12 -16 25 9 15 25 12 25 -4z m57 -28 c13 -12 23 -28 23 -36 0 -8 7 -20 17
-27 21 -15 11 -45 -16 -45 -20 0 -33 22 -25 43 2 7 -9 20 -26 30 -31 19 -39
42 -17 50 19 8 19 8 44 -15z m568 -51 c4 -13 5 -50 3 -82 l-3 -60 -50 -12
c-65 -16 -87 -9 -83 25 3 24 8 27 53 32 l50 5 -3 58 c-3 47 -1 57 12 57 9 0
18 -10 21 -23z m-696 -52 c13 -14 31 -25 40 -25 17 0 41 -37 41 -62 0 -6 -12
-30 -27 -54 -28 -43 -52 -54 -83 -35 -16 11 -18 83 -1 89 18 6 12 46 -9 60
-25 15 -27 52 -2 52 9 0 28 -12 41 -25z m199 -131 c30 -21 28 -51 -8 -107 -31
-50 -52 -57 -82 -30 -24 22 -23 39 7 101 27 56 44 63 83 36z m1435 -13 c17
-17 -4 -45 -36 -49 -25 -3 -26 -1 -21 27 6 26 3 31 -13 31 -11 0 -39 -18 -63
-40 -24 -22 -49 -40 -57 -40 -7 0 -19 -11 -25 -25 -6 -14 -15 -25 -20 -25 -4
0 -8 -6 -8 -14 0 -8 -8 -23 -17 -35 -23 -27 -63 -19 -63 13 0 27 56 91 88 101
12 3 22 13 22 21 0 28 79 55 144 50 32 -2 63 -9 69 -15z m-463 -37 c0 -8 -4
-12 -10 -9 -5 3 -10 10 -10 16 0 5 5 9 10 9 6 0 10 -7 10 -16z m-532 -6 c19
-19 14 -55 -10 -75 -13 -10 -31 -34 -41 -53 -14 -29 -17 -30 -12 -9 6 31 -15
62 -35 54 -8 -3 -28 -25 -43 -50 -30 -47 -44 -55 -53 -31 -8 21 24 76 44 76
23 0 72 46 72 69 0 10 3 21 7 24 11 11 58 8 71 -5z m1122 -29 c0 -26 -23 -45
-41 -33 -10 6 -12 47 -3 57 3 3 15 5 25 4 14 -1 19 -9 19 -28z m-660 -39 c0
-5 -7 -10 -15 -10 -8 0 -15 5 -15 10 0 6 7 10 15 10 8 0 15 -4 15 -10z m490
-79 c0 -16 7 -34 15 -41 11 -9 13 -16 5 -24 -5 -5 -10 -27 -10 -47 0 -33 -4
-39 -40 -58 -34 -18 -41 -19 -54 -6 -18 19 -25 19 -46 0 -14 -12 -23 -13 -51
-3 -42 14 -49 23 -49 71 0 29 7 46 29 68 34 33 61 30 61 -8 0 -20 4 -24 23
-21 17 2 23 11 25 38 4 34 17 49 57 61 28 8 35 2 35 -30z m-1350 4 c0 -8 -4
-15 -10 -15 -5 0 -10 7 -10 15 0 8 5 15 10 15 6 0 10 -7 10 -15z m932 -7 c10
-29 -4 -58 -28 -58 -20 0 -24 5 -24 28 0 16 3 32 7 35 11 11 41 8 45 -5z
m-517 -66 c-9 -9 -95 12 -95 23 0 10 11 9 49 -3 27 -10 48 -18 46 -20z m1077
6 c-9 -9 -12 -7 -12 12 0 19 3 21 12 12 9 -9 9 -15 0 -24z m-1008 -23 c3 -8 1
-26 -4 -39 -14 -38 -110 -61 -110 -26 0 6 18 9 43 8 l42 -3 -2 38 c-2 38 19
53 31 22z m1046 -19 c0 -14 -4 -28 -10 -31 -6 -4 -10 7 -10 24 0 17 5 31 10
31 6 0 10 -11 10 -24z m-1563 -28 c-3 -8 -6 -5 -6 6 -1 11 2 17 5 13 3 -3 4
-12 1 -19z m83 -57 c0 -24 -13 -33 -34 -25 -27 10 -20 44 9 44 18 0 25 -5 25
-19z m769 -72 c18 -33 10 -64 -30 -113 l-33 -39 -17 22 c-19 24 -67 28 -88 9
-11 -11 -13 -10 -8 5 4 10 2 27 -3 37 -9 16 -5 22 19 35 17 8 37 15 45 15 9 0
28 14 43 30 31 36 51 35 72 -1z m344 -37 c28 -26 37 -75 16 -87 -19 -12 -30
-56 -18 -72 9 -10 9 -20 0 -40 l-12 -27 -16 31 c-14 30 -14 35 12 87 31 64 27
96 -11 96 -14 0 -34 -5 -45 -10 -17 -9 -46 -2 -67 16 -2 1 11 16 30 33 31 28
34 29 58 14 14 -9 37 -27 53 -41z m-1147 2 c-3 -8 -2 -13 3 -10 5 3 14 -1 21
-9 18 -21 33 -19 27 4 -3 14 -1 18 9 14 8 -3 14 -10 14 -15 0 -5 14 -23 30
-40 30 -29 32 -30 101 -23 77 8 89 2 89 -42 0 -35 -37 -51 -135 -58 -84 -6
-92 -5 -125 17 -29 20 -37 34 -49 85 -14 62 -11 93 10 93 6 0 8 -7 5 -16z
m-268 -88 c5 -24 -10 -38 -31 -30 -17 6 -23 35 -10 48 12 12 38 1 41 -18z m86
-11 c20 -21 10 -45 -19 -45 -28 0 -45 38 -24 51 19 12 25 11 43 -6z m1236 -46
c0 -11 -4 -19 -9 -19 -10 0 -21 24 -21 47 0 13 3 13 15 3 8 -7 15 -21 15 -31z
m-600 -74 c0 -8 -7 -15 -15 -15 -8 0 -15 7 -15 15 0 8 7 15 15 15 8 0 15 -7
15 -15z m-492 -47 c3 -24 0 -28 -23 -28 -27 0 -41 20 -31 46 10 27 51 13 54
-18z m250 -24 c3 -23 -42 -78 -60 -72 -28 10 -31 35 -7 67 27 36 62 39 67 5z
m-373 -28 c0 -30 -31 -44 -51 -24 -15 14 -15 20 -4 33 18 21 55 15 55 -9z
m590 -16 c0 -7 -6 -15 -12 -17 -8 -3 -13 4 -13 17 0 13 5 20 13 18 6 -3 12
-11 12 -18z"/>
</g>
</svg>
